<svg xmlns="http://www.w3.org/2000/svg" viewBox="0 0 1200 900" width="1200" height="900" role="img">
  <defs>
    <linearGradient id="g" x1="0" y1="0" x2="0" y2="1">
      <stop offset="0" stop-color="#FBF3E4"/><stop offset="1" stop-color="#D3D4C0"/>
    </linearGradient>
    <filter id="grain"><feTurbulence type="fractalNoise" baseFrequency="0.9" numOctaves="3"/>
      <feColorMatrix type="saturate" values="0"/></filter>
  </defs>
  <rect width="1200" height="900" fill="url(#g)"/>
  <ellipse cx="600" cy="700" rx="430" ry="90" fill="#D3D4C0" opacity="0.5"/>
  <g fill="none" stroke="#0A2947" stroke-width="12" stroke-linecap="round" stroke-linejoin="round">
    
    <path d="M330 340 h540 a40 40 0 0 1 40 40 v230 a40 40 0 0 1 -40 40 h-540 a40 40 0 0 1 -40 -40 v-230 a40 40 0 0 1 40 -40 z" fill="#0A2947"/>
    <path d="M500 280 h200 v60 h-200 z" fill="#0A2947" stroke="#0A2947"/>
    <circle cx="600" cy="495" r="130" fill="#F3E4C9" stroke="#0A2947"/>
    <circle cx="600" cy="495" r="80" fill="#D3D4C0" stroke="#0A2947"/>
    <circle cx="600" cy="495" r="34" fill="#0A2947" stroke="#0A2947"/>
    <circle cx="370" cy="400" r="16" fill="#8B5E3C" stroke="none"/>
    <path d="M760 390 h70" stroke="#F3E4C9"/>
  </g>
  <rect width="1200" height="900" filter="url(#grain)" opacity="0.06"/>
</svg>