<svg xmlns="http://www.w3.org/2000/svg" viewBox="0 0 1200 900" width="1200" height="900" role="img">
  <defs>
    <linearGradient id="g" x1="0" y1="0" x2="0" y2="1">
      <stop offset="0" stop-color="#FBF3E4"/><stop offset="1" stop-color="#D3D4C0"/>
    </linearGradient>
    <filter id="grain"><feTurbulence type="fractalNoise" baseFrequency="0.9" numOctaves="3"/>
      <feColorMatrix type="saturate" values="0"/></filter>
  </defs>
  <rect width="1200" height="900" fill="url(#g)"/>
  <ellipse cx="600" cy="700" rx="430" ry="90" fill="#D3D4C0" opacity="0.5"/>
  <g fill="none" stroke="#0A2947" stroke-width="12" stroke-linecap="round" stroke-linejoin="round">
    
    <path d="M370 420 h460 v200 a60 60 0 0 1 -60 60 h-340 a60 60 0 0 1 -60 -60 z" fill="#FBF3E4"/>
    <path d="M350 360 h500 a20 20 0 0 1 20 30 l-10 30 h-520 l-10 -30 a20 20 0 0 1 20 -30 z" fill="#0A2947" stroke="#0A2947"/>
    <path d="M560 320 h80 v40 h-80 z" fill="#0A2947" stroke="#0A2947"/>
    <path d="M450 490 h180 v90 h-180 z" fill="#F3E4C9"/>
    <path d="M480 525 h120 M480 555 h80" stroke="#D3D4C0"/>
    <circle cx="720" cy="520" r="22" fill="#8B5E3C" stroke="#0A2947"/>
    <path d="M600 300 c-40 -40 40 -60 0 -100" stroke="#8B5E3C"/>
  </g>
  <rect width="1200" height="900" filter="url(#grain)" opacity="0.06"/>
</svg>